<svg width="131.93442382812498px" height="122px" xmlns="http://www.w3.org/2000/svg" viewBox="184.0327880859375 14 131.93442382812498 122" style="background: rgb(244, 116, 54);" preserveAspectRatio="xMidYMid"><defs><filter id="editing-hover" x="-100%" y="-100%" width="300%" height="300%"><feFlood flood-color="#f47436" result="flood"></feFlood><feComposite operator="in" in2="SourceAlpha" in="flood" result="shadow"></feComposite><feOffset dx="-4" dy="-4" in="SourceGraphic" result="offset-1"></feOffset><feOffset dx="4" dy="4" in="shadow" result="offset-2"></feOffset><feMerge><feMergeNode in="offset-2"></feMergeNode><feMergeNode in="offset-1"></feMergeNode></feMerge></filter></defs><g filter="url(#editing-hover)"><g transform="translate(210.50863751769066, 96.76000022888184)"><path d="M24.96-4.80L24.96-4.80L24.96-4.80Q24.96-9.28 26.75-18.24L26.75-18.24L17.28-18.24L13.76 0L0.38 0L8.51-42.24L22.02-42.24L18.30-23.36L27.78-23.36L31.30-42.24L44.80-42.24L44.80-42.24Q43.90-37.50 42.75-32.19L42.75-32.19L40.58-21.76L40.58-21.76Q38.14-9.60 38.14-4.29L38.14-4.29L38.14-4.29Q38.14-2.11 38.85-0.90L38.85-0.90L38.85-0.90Q35.65 1.28 31.90 1.28L31.90 1.28L31.90 1.28Q28.16 1.28 26.56-0.51L26.56-0.51L26.56-0.51Q24.96-2.30 24.96-4.80ZM73.66-9.86L73.66-9.86L73.66-9.86Q74.88-8.32 74.88-5.82L74.88-5.82L74.88-5.82Q74.88-2.37 72.32-0.54L72.32-0.54L72.32-0.54Q69.76 1.28 65.73 1.28L65.73 1.28L65.73 1.28Q63.42 1.28 59.90 0.77L59.90 0.77L59.90 0.77Q52.99-0.32 50.88-0.32L50.88-0.32L50.88-0.32Q48.77-0.32 47.94-0.22L47.94-0.22L47.94-0.22Q47.10-0.13 45.76 0L45.76 0L53.63-42.24L81.22-42.24L81.22-42.24Q81.22-38.34 79.33-36.29L79.33-36.29L79.33-36.29Q77.44-34.24 73.73-34.24L73.73-34.24L73.73-34.24Q70.02-34.24 66.24-35.97L66.24-35.97L64.26-24.77L75.65-24.77L75.65-24.77Q75.65-21.38 73.98-19.49L73.98-19.49L73.98-19.49Q72.32-17.60 69.54-17.60L69.54-17.60L69.54-17.60Q66.75-17.60 65.02-18.24L65.02-18.24L65.02-18.24Q63.30-18.88 63.10-19.07L63.10-19.07L60.80-6.98L60.80-6.98Q62.34-6.78 65.22-6.78L65.22-6.78L65.22-6.78Q70.14-6.78 73.66-9.86Z" fill="#ffffff"></path></g></g><style>text {
  font-size: 64px;
  font-family: Arial Black;
  dominant-baseline: central;
  text-anchor: middle;
}</style></svg>